<mxfile host="app.diagrams.net" modified="2024-10-19T12:02:28.707Z" agent="Mozilla/5.0 (Macintosh; Intel Mac OS X 10_15_7) AppleWebKit/537.36 (KHTML, like Gecko) Chrome/129.0.0.0 Safari/537.36" version="24.5.5" etag="66Ej7JrzvUJBbZry3C5-" type="device">
  <diagram id="3m60n-SUHwOR5A-byKnQ" name="Page-1">
    <mxGraphModel dx="1327" dy="884" grid="1" gridSize="75" guides="1" tooltips="1" connect="1" arrows="1" fold="1" page="1" pageScale="1" pageWidth="400" pageHeight="800" background="none" math="0" shadow="0">
      <root>
        <mxCell id="0" />
        <mxCell id="1" parent="0" />
        <mxCell id="A1_--69HlLF86H3ZBMmW-19" value="" style="rounded=0;whiteSpace=wrap;html=1;fillColor=none;strokeWidth=2;dashed=1;" vertex="1" parent="1">
          <mxGeometry x="300" y="375" width="600" height="225" as="geometry" />
        </mxCell>
        <mxCell id="A1_--69HlLF86H3ZBMmW-12" style="edgeStyle=orthogonalEdgeStyle;rounded=0;orthogonalLoop=1;jettySize=auto;html=1;" edge="1" parent="1" source="A1_--69HlLF86H3ZBMmW-3" target="A1_--69HlLF86H3ZBMmW-4">
          <mxGeometry relative="1" as="geometry" />
        </mxCell>
        <mxCell id="A1_--69HlLF86H3ZBMmW-28" style="edgeStyle=orthogonalEdgeStyle;rounded=0;orthogonalLoop=1;jettySize=auto;html=1;entryX=0.5;entryY=0;entryDx=0;entryDy=0;" edge="1" parent="1" source="A1_--69HlLF86H3ZBMmW-3" target="A1_--69HlLF86H3ZBMmW-27">
          <mxGeometry relative="1" as="geometry" />
        </mxCell>
        <mxCell id="A1_--69HlLF86H3ZBMmW-3" value="" style="image;aspect=fixed;html=1;points=[];align=center;fontSize=12;image=img/lib/azure2/analytics/Azure_Databricks.svg;" vertex="1" parent="1">
          <mxGeometry x="540.5" y="160.36" width="120" height="130.06" as="geometry" />
        </mxCell>
        <mxCell id="A1_--69HlLF86H3ZBMmW-4" value="" style="image;aspect=fixed;html=1;points=[];align=center;fontSize=12;image=img/lib/azure2/analytics/Power_BI_Embedded.svg;" vertex="1" parent="1">
          <mxGeometry x="1000" y="175.39" width="75" height="100" as="geometry" />
        </mxCell>
        <mxCell id="A1_--69HlLF86H3ZBMmW-5" value="" style="image;aspect=fixed;html=1;points=[];align=center;fontSize=12;image=img/lib/azure2/general/Blob_Block.svg;" vertex="1" parent="1">
          <mxGeometry x="545" y="450" width="110" height="88" as="geometry" />
        </mxCell>
        <mxCell id="A1_--69HlLF86H3ZBMmW-23" style="edgeStyle=orthogonalEdgeStyle;rounded=0;orthogonalLoop=1;jettySize=auto;html=1;" edge="1" parent="1" source="A1_--69HlLF86H3ZBMmW-6" target="A1_--69HlLF86H3ZBMmW-17">
          <mxGeometry relative="1" as="geometry" />
        </mxCell>
        <mxCell id="A1_--69HlLF86H3ZBMmW-6" value="" style="image;aspect=fixed;html=1;points=[];align=center;fontSize=12;image=img/lib/azure2/compute/Function_Apps.svg;" vertex="1" parent="1">
          <mxGeometry x="87" y="350" width="113.33" height="100" as="geometry" />
        </mxCell>
        <mxCell id="A1_--69HlLF86H3ZBMmW-8" value="" style="aspect=fixed;sketch=0;html=1;dashed=0;whitespace=wrap;verticalLabelPosition=bottom;verticalAlign=top;fillColor=#2875E2;strokeColor=#ffffff;points=[[0.005,0.63,0],[0.1,0.2,0],[0.9,0.2,0],[0.5,0,0],[0.995,0.63,0],[0.72,0.99,0],[0.5,1,0],[0.28,0.99,0]];shape=mxgraph.kubernetes.icon2;kubernetesLabel=1;prIcon=api" vertex="1" parent="1">
          <mxGeometry x="99.99999999999994" y="196.42000000000002" width="97.92" height="94" as="geometry" />
        </mxCell>
        <mxCell id="A1_--69HlLF86H3ZBMmW-9" style="edgeStyle=orthogonalEdgeStyle;rounded=0;orthogonalLoop=1;jettySize=auto;html=1;entryX=0.546;entryY=-0.025;entryDx=0;entryDy=0;entryPerimeter=0;" edge="1" parent="1" source="A1_--69HlLF86H3ZBMmW-8" target="A1_--69HlLF86H3ZBMmW-6">
          <mxGeometry relative="1" as="geometry" />
        </mxCell>
        <mxCell id="A1_--69HlLF86H3ZBMmW-24" style="edgeStyle=orthogonalEdgeStyle;rounded=0;orthogonalLoop=1;jettySize=auto;html=1;" edge="1" parent="1" source="A1_--69HlLF86H3ZBMmW-15" target="A1_--69HlLF86H3ZBMmW-17">
          <mxGeometry relative="1" as="geometry" />
        </mxCell>
        <mxCell id="A1_--69HlLF86H3ZBMmW-15" value="" style="sketch=0;pointerEvents=1;shadow=0;dashed=0;html=1;strokeColor=none;fillColor=#505050;labelPosition=center;verticalLabelPosition=bottom;verticalAlign=top;outlineConnect=0;align=center;shape=mxgraph.office.users.csv_file;aspect=fixed;" vertex="1" parent="1">
          <mxGeometry x="100" y="538" width="100" height="72.89" as="geometry" />
        </mxCell>
        <mxCell id="A1_--69HlLF86H3ZBMmW-17" value="" style="image;aspect=fixed;html=1;points=[];align=center;fontSize=12;image=img/lib/azure2/general/Blob_Block.svg;" vertex="1" parent="1">
          <mxGeometry x="347.59" y="450" width="110" height="88" as="geometry" />
        </mxCell>
        <mxCell id="A1_--69HlLF86H3ZBMmW-18" value="" style="image;aspect=fixed;html=1;points=[];align=center;fontSize=12;image=img/lib/azure2/general/Blob_Block.svg;" vertex="1" parent="1">
          <mxGeometry x="745" y="450" width="110" height="88" as="geometry" />
        </mxCell>
        <mxCell id="A1_--69HlLF86H3ZBMmW-20" value="Bronze" style="text;html=1;align=center;verticalAlign=middle;whiteSpace=wrap;rounded=0;" vertex="1" parent="1">
          <mxGeometry x="372.59000000000003" y="538" width="60" height="30" as="geometry" />
        </mxCell>
        <mxCell id="A1_--69HlLF86H3ZBMmW-21" value="Silver" style="text;html=1;align=center;verticalAlign=middle;whiteSpace=wrap;rounded=0;" vertex="1" parent="1">
          <mxGeometry x="569.7" y="538" width="60" height="30" as="geometry" />
        </mxCell>
        <mxCell id="A1_--69HlLF86H3ZBMmW-22" value="Gold" style="text;html=1;align=center;verticalAlign=middle;whiteSpace=wrap;rounded=0;" vertex="1" parent="1">
          <mxGeometry x="770" y="538" width="60" height="30" as="geometry" />
        </mxCell>
        <mxCell id="A1_--69HlLF86H3ZBMmW-25" value="Medallion A&lt;span style=&quot;background-color: initial;&quot;&gt;rchitecture&lt;/span&gt;" style="text;html=1;align=center;verticalAlign=middle;whiteSpace=wrap;rounded=0;" vertex="1" parent="1">
          <mxGeometry x="523" y="610.89" width="155" height="30" as="geometry" />
        </mxCell>
        <mxCell id="A1_--69HlLF86H3ZBMmW-27" value="Data Transformation" style="text;html=1;align=center;verticalAlign=middle;whiteSpace=wrap;rounded=0;strokeColor=#595959;strokeWidth=2;fillColor=#D4D4D4;gradientColor=none;" vertex="1" parent="1">
          <mxGeometry x="300" y="337" width="600" height="30" as="geometry" />
        </mxCell>
        <mxCell id="A1_--69HlLF86H3ZBMmW-29" value="Power BI Report" style="text;html=1;align=center;verticalAlign=middle;whiteSpace=wrap;rounded=0;" vertex="1" parent="1">
          <mxGeometry x="1007.5" y="307" width="60" height="30" as="geometry" />
        </mxCell>
        <mxCell id="A1_--69HlLF86H3ZBMmW-30" value="Databricks" style="text;html=1;align=center;verticalAlign=middle;whiteSpace=wrap;rounded=0;" vertex="1" parent="1">
          <mxGeometry x="570.5" y="130.36" width="60" height="30" as="geometry" />
        </mxCell>
        <mxCell id="A1_--69HlLF86H3ZBMmW-31" value="Iowa gov API" style="text;html=1;align=center;verticalAlign=middle;whiteSpace=wrap;rounded=0;" vertex="1" parent="1">
          <mxGeometry x="93.3" y="145.39" width="111.33" height="30" as="geometry" />
        </mxCell>
        <mxCell id="A1_--69HlLF86H3ZBMmW-32" value="Historical csv data" style="text;html=1;align=center;verticalAlign=middle;whiteSpace=wrap;rounded=0;" vertex="1" parent="1">
          <mxGeometry x="113.67000000000002" y="640.89" width="60" height="30" as="geometry" />
        </mxCell>
        <mxCell id="A1_--69HlLF86H3ZBMmW-33" value="Daily Incremental Sync" style="text;html=1;align=center;verticalAlign=middle;whiteSpace=wrap;rounded=0;" vertex="1" parent="1">
          <mxGeometry x="93.3" y="450" width="111.33" height="30" as="geometry" />
        </mxCell>
      </root>
    </mxGraphModel>
  </diagram>
</mxfile>
